# xmcd
#
# Track frame offsets: 
#        150
#        15720
#        33671
#        50227
#        67060
#        78145
#        98186
#        119964
#        132755
#        146700
#        163016
#        178988
#
# Disc length: 2626 seconds
#
# Revision: 0
# Processed by: cddbd v1.5.1PL2 Copyright (c) Steve Scherf et al.
# Submitted via: ExactAudioCopy v0.95b3
#
DISCID=b60a400c
DTITLE=Toby Keith - A tribute to Toby Keith
DYEAR=2003
DGENRE=Country
TTITLE0=How Do You Like Me Now
TTITLE1=I'm So Happy I Can't Stop Crying
TTITLE2=Big Ol' Truck
TTITLE3=Does That Blue Moon Ever Shine
TTITLE4=You Ain't Much Fun
TTITLE5=Upstairs Downtown
TTITLE6=Who's That Man
TTITLE7=A Little Less Talk and A Lot More Action
TTITLE8=He Ain't Worth Missing
TTITLE9=Country Comes to Town
TTITLE10=Who's Your Daddy
TTITLE11=Pull My Chain
EXTD=
EXTT0=
EXTT1=
EXTT2=
EXTT3=
EXTT4=
EXTT5=
EXTT6=
EXTT7=
EXTT8=
EXTT9=
EXTT10=
EXTT11=
PLAYORDER=
